<?xml version="1.0" encoding="UTF-8" standalone="no"?>
<!DOCTYPE svg PUBLIC "-//W3C//DTD SVG 1.1//EN"
 "http://www.w3.org/Graphics/SVG/1.1/DTD/svg11.dtd">
<!-- Generated by graphviz version 2.26.3 (20100126.1600)
 -->
<!-- Title: G Pages: 1 -->
<svg width="192pt" height="260pt"
 viewBox="0.00 0.00 192.00 260.00" xmlns="http://www.w3.org/2000/svg" xmlns:xlink="http://www.w3.org/1999/xlink">
<g id="graph1" class="graph" transform="scale(1 1) rotate(0) translate(4 256)">
<title>G</title>
<polygon fill="white" stroke="white" points="-4,5 -4,-256 189,-256 189,5 -4,5"/>
<g id="graph2" class="cluster"><title>cluster_global</title>
<polyline fill="none" stroke="gray" points="20,-8 164,-8 "/>
<path fill="none" stroke="gray" d="M164,-8C170,-8 176,-14 176,-20"/>
<polyline fill="none" stroke="gray" points="176,-20 176,-232 "/>
<path fill="none" stroke="gray" d="M176,-232C176,-238 170,-244 164,-244"/>
<polyline fill="none" stroke="gray" points="164,-244 20,-244 "/>
<path fill="none" stroke="gray" d="M20,-244C14,-244 8,-238 8,-232"/>
<polyline fill="none" stroke="gray" points="8,-232 8,-20 "/>
<path fill="none" stroke="gray" d="M8,-20C8,-14 14,-8 20,-8"/>
<text text-anchor="middle" x="92" y="-230.1" font-family="Times Roman,serif" font-size="11.00" fill="gray">global</text>
</g>
<!-- \\Requester -->
<g id="node2" class="node"><title>\\Requester</title>
<a xlink:href="registry_parser.html" xlink:title="Requester" target="_parent">
<polygon fill="none" stroke="black" points="130,-214 54,-214 54,-178 130,-178 130,-214"/>
<text text-anchor="middle" x="92" y="-193.1" font-family="Courier,monospace" font-size="11.00">Requester</text>
</a>
</g>
<!-- \\SearchResponseParser -->
<g id="node3" class="node"><title>\\SearchResponseParser</title>
<a xlink:href="registry_parser.html" xlink:title="SearchResponseParser" target="_parent">
<polygon fill="none" stroke="black" points="168,-160 16,-160 16,-124 168,-124 168,-160"/>
<text text-anchor="middle" x="92" y="-139.1" font-family="Courier,monospace" font-size="11.00">SearchResponseParser</text>
</a>
</g>
<!-- \\XQueryResponseParser -->
<g id="node4" class="node"><title>\\XQueryResponseParser</title>
<a xlink:href="registry_parser.html" xlink:title="XQueryResponseParser" target="_parent">
<polygon fill="none" stroke="black" points="168,-106 16,-106 16,-70 168,-70 168,-106"/>
<text text-anchor="middle" x="92" y="-85.1" font-family="Courier,monospace" font-size="11.00">XQueryResponseParser</text>
</a>
</g>
<!-- \\ResourceParser -->
<g id="node5" class="node"><title>\\ResourceParser</title>
<a xlink:href="registry_parser.html" xlink:title="ResourceParser" target="_parent">
<polygon fill="none" stroke="black" points="147,-52 37,-52 37,-16 147,-16 147,-52"/>
<text text-anchor="middle" x="92" y="-31.1" font-family="Courier,monospace" font-size="11.00">ResourceParser</text>
</a>
</g>
</g>
</svg>
